{"title":"Final.Destination.5.3D.2011.1080p.BluRay.Half.SBS.DTS.x264-HDMaN","uid":8028395,"size":7476020334,"categoryP":"video","categoryS":"3d","magnet":"?xt=urn:btih:d33a2ffb40e75e53bc11411a2b5e6ff4cc9209ec&amp;dn=Final.Destination.5.3D.2011.1080p.BluRay.Half.SBS.DTS.x264-HDMaN&amp;tr=udp%3A%2F%2Ftracker.openbittorrent.com%3A80&amp;tr=udp%3A%2F%2Fopen.demonii.com%3A1337&amp;tr=udp%3A%2F%2Ftracker.coppersurfer.tk%3A6969&amp;tr=udp%3A%2F%2Fexodus.desync.com%3A6969","seeders":9,"leechers":6,"uploader":"maximersk","files":2,"time":1358356408,"description":"Final.Destination.5.3D.2011.1080p.BluRay.Half.SBS.DTS.x264-HDMaNiAcS\n\n\n\n\n\n  Complete name : Final.Destination.5.3D.2011.1080p.BluRay.Half.SBS.DTS.x264-HDMaNiAcS.mkv\n   Format : Matroska\n   Format version : Version 4 / Version 2\n   File size : 6.96 GiB\n   Duration : 1h 31mn\n   Overall bit rate : 10.9 Mbps\n   Encoded date : UTC 2010-02-22 21:41:31\n   Writing application : mkvmerge v5.9.0 ('On The Loose') built on Dec  9 2012 15:37:01\n   Writing library : libebml v1.3.0 + libmatroska v1.4.0\n\n Video #1\n   ID : 1\n   Format : AVC\n   Format/Info : Advanced Video Codec\n   Format profile : &lt;a class=&quot;__cf_email__&quot; href=&quot;/cdn-cgi/l/email-protection&quot; data-cfemail=&quot;3d75545a557d7109130c&quot;&gt;[email&amp;#160;protected]&lt;/a&gt;&lt;script cf-hash='f9e31' type=&quot;text/javascript&quot;&gt;\n/* &lt;![CDATA[ */!function(){try{var t=&quot;currentScript&quot;in document?document.currentScript:function(){for(var t=document.getElementsByTagName(&quot;script&quot;),e=t.length;e--;)if(t[e].getAttribute(&quot;cf-hash&quot;))return t[e]}();if(t&amp;&amp;t.previousSibling){var e,r,n,i,c=t.previousSibling,a=c.getAttribute(&quot;data-cfemail&quot;);if(a){for(e=&quot;&quot;,r=parseInt(a.substr(0,2),16),n=2;a.length-n;n+=2)i=parseInt(a.substr(n,2),16)^r,e+=String.fromCharCode(i);e=document.createTextNode(e),c.parentNode.replaceChild(e,c)}}}catch(u){}}();/* ]]&gt; */&lt;/script&gt;\n   Format settings, CABAC : Yes\n   Format settings, ReFrames : 4 frames\n   Muxing mode : Header stripping\n   Codec ID : V_MPEG4/ISO/AVC\n   Duration : 1h 31mn\n   Bit rate : 9 350 Kbps\n   Width : 1 920 pixels\n   Height : 1 080 pixels\n   Display aspect ratio : 16:9\n   Frame rate mode : Constant\n   Frame rate : 23.976 fps\n   Color space : YUV\n   Chroma subsampling : 4:2:0\n   Bit depth : 8 bits\n   Scan type : Progressive\n   Bits/(Pixel*Frame) : 0.188\n   Stream size : 5.86 GiB (84%)\n   Writing library : x264 core 119 r2106 07efeb4\n   Language : English\n   Default : Yes\n   Forced : No\n\n Audio #2\n   ID : 2\n   Format : DTS\n   Format/Info : Digital Theater Systems\n   Mode : 16\n   Format settings, Endianness : Big\n   Muxing mode : Header stripping\n   Codec ID : A_DTS\n   Duration : 1h 31mn\n   Bit rate mode : Constant\n   Bit rate : 1 509 Kbps\n   Channel(s) : 6 channels\n   Channel positions : Front: L C R, Side: L R, LFE\n   Sampling rate : 48.0 KHz\n   Bit depth : 24 bits\n   Compression mode : Lossy\n   Stream size : 991 MiB (14%)\n   Language : English\n   Default : Yes\n   Forced : No","torrent":{"xt":"urn:btih:d33a2ffb40e75e53bc11411a2b5e6ff4cc9209ec","amp;dn":"Final.Destination.5.3D.2011.1080p.BluRay.Half.SBS.DTS.x264-HDMaN","amp;tr":["udp%3A%2F%2Ftracker.openbittorrent.com%3A80","udp%3A%2F%2Fopen.demonii.com%3A1337","udp%3A%2F%2Ftracker.coppersurfer.tk%3A6969","udp%3A%2F%2Fexodus.desync.com%3A6969"],"infoHash":"d33a2ffb40e75e53bc11411a2b5e6ff4cc9209ec","infoHashBuffer":{"type":"Buffer","data":[211,58,47,251,64,231,94,83,188,17,65,26,43,94,111,244,204,146,9,236]},"announce":[],"urlList":[]}}